<?xml version="1.0" encoding="UTF-8" standalone="no"?>
<!DOCTYPE svg PUBLIC "-//W3C//DTD SVG 1.1//EN" "http://www.w3.org/Graphics/SVG/1.1/DTD/svg11.dtd">
<svg width="100%" height="100%" viewBox="0 0 80 68" version="1.1" xmlns="http://www.w3.org/2000/svg" xmlns:xlink="http://www.w3.org/1999/xlink" xml:space="preserve" xmlns:serif="http://www.serif.com/" style="fill-rule:evenodd;clip-rule:evenodd;stroke-linejoin:round;stroke-miterlimit:2;">
    <g transform="matrix(1.044533,0,0,1,-0.534356,0)">
        <g transform="matrix(1,0,0,1,-11.487426,-13.999853)">
            <path d="M82.198,70.004L50.021,70.004L50.021,35.364L56.578,35.364L53.62,32.477L50.021,32.477L50.021,28.97L44.742,23.818L11.999,23.818L11.999,81.554L85.118,81.554L85.118,63.221L82.198,60.367L82.198,70.004ZM14.928,32.478L14.928,26.703L20.772,26.703L20.772,32.478L14.928,32.478ZM23.701,32.478L23.701,26.703L29.552,26.703L29.552,32.478L23.701,32.478ZM32.473,32.478L32.473,26.703L38.324,26.703L38.324,32.478L32.473,32.478ZM41.247,32.478L41.247,26.703L47.1,26.703L47.1,32.478L41.247,32.478ZM14.928,70.004L14.928,35.364L47.1,35.364L47.1,70.004L14.928,70.004ZM82.198,72.895L82.198,78.67L76.344,78.67L76.344,72.895L82.198,72.895ZM73.423,72.895L73.423,78.67L67.573,78.67L67.573,72.895L73.423,72.895ZM64.646,72.895L64.646,78.67L58.793,78.67L58.793,72.895L64.646,72.895ZM55.873,72.895L55.873,78.67L50.02,78.67L50.02,72.895L55.873,72.895ZM47.1,72.895L47.1,78.67L41.247,78.67L41.247,72.895L47.1,72.895ZM38.323,72.895L38.323,78.67L32.472,78.67L32.472,72.895L38.323,72.895ZM29.552,72.895L29.552,78.67L23.701,78.67L23.701,72.895L29.552,72.895ZM20.771,72.895L20.771,78.67L14.927,78.67L14.927,72.895L20.771,72.895Z" style="fill:white;fill-rule:nonzero;"/>
            <rect x="17.788" y="37.914" width="27.301" height="29.94" style="fill:white;"/>
            <path d="M52.447,43.704L52.447,67.854L79.749,67.854L70.499,52.578" style="fill:white;fill-rule:nonzero;"/>
            <path d="M73.842,29.31C73.076,29.322 72.484,30.034 72.503,30.871C72.517,31.708 73.136,32.402 73.899,32.38C74.635,32.371 75.232,31.659 75.218,30.818C75.201,29.98 74.587,29.287 73.842,29.31ZM81.438,16.663C79.372,16.704 77.72,18.636 77.759,20.979C77.804,23.314 79.528,25.187 81.586,25.152C83.678,25.108 85.312,23.166 85.269,20.838C85.221,18.495 83.516,16.616 81.438,16.663ZM81.791,36.481C79.729,36.523 78.07,38.452 78.118,40.792C78.153,43.14 79.886,44.991 81.95,44.956C84.026,44.918 85.661,42.992 85.626,40.646C85.583,38.301 83.873,36.451 81.791,36.481ZM81.994,47.631C78.611,47.697 75.822,44.654 75.759,40.839C75.714,38.803 76.443,36.976 77.665,35.695L73.7,33.377L58.644,43.693C56.395,44.966 54.109,44.1 51.79,42.408L69.644,30.989L51.397,20.233C53.644,18.462 55.907,17.507 58.195,18.686L73.608,28.435L77.402,26.004C76.19,24.757 75.438,22.989 75.397,21.013C75.33,17.221 78.003,14.067 81.389,14.001C84.768,13.932 87.575,16.984 87.641,20.779C87.712,24.537 85.102,27.647 81.787,27.806L77.393,30.836L82.127,33.823C85.334,33.969 87.934,36.927 87.996,40.602C88.074,44.413 85.38,47.56 81.994,47.631Z" style="fill:white;"/>
        </g>
    </g>
</svg>
